<svg width="48" height="48" viewBox="0 0 48 48" fill="none" xmlns="http://www.w3.org/2000/svg">
<path d="M33.6285 21.8584L24.9969 10.4724C24.8853 10.3257 24.7405 10.2067 24.574 10.1247C24.4075 10.0427 24.224 10 24.0379 10C23.8517 10 23.6682 10.0427 23.5017 10.1247C23.3353 10.2067 23.1905 10.3257 23.0788 10.4724L14.3673 21.8584C14.2077 22.0686 13.9816 22.2204 13.7248 22.2899C13.4679 22.3594 13.1948 22.3426 12.9487 22.2422L5.68573 19.2899C5.48739 19.2031 5.26884 19.1709 5.0534 19.1969C4.83795 19.2228 4.6337 19.3059 4.46243 19.4372C4.29116 19.5685 4.1593 19.7432 4.08091 19.9426C4.00252 20.142 3.98056 20.3586 4.01735 20.5693L6.81463 35.0159C6.86175 35.2905 7.00591 35.5399 7.22162 35.72C7.43734 35.9001 7.71072 35.9993 7.99348 36H39.9823C40.2651 35.9993 40.5385 35.9001 40.7542 35.72C40.9699 35.5399 41.1141 35.2905 41.1612 35.0159L43.9784 20.5693C44.0195 20.3588 44.0017 20.1413 43.9268 19.94C43.852 19.7388 43.7229 19.5614 43.5535 19.4269C43.3841 19.2924 43.1808 19.2058 42.9652 19.1765C42.7497 19.1472 42.5301 19.1762 42.33 19.2604L35.0671 22.2127C34.8217 22.3212 34.5465 22.3452 34.2855 22.281C34.0246 22.2167 33.7932 22.0679 33.6285 21.8584Z" fill="#E5AE24"/>
</svg>
