<svg width="28" height="28" viewBox="0 0 28 28" fill="none" xmlns="http://www.w3.org/2000/svg">
<path fill-rule="evenodd" clip-rule="evenodd" d="M6.57612 19.7747C6.12051 20.2303 6.12051 20.969 6.57612 21.4247C7.03173 21.8803 7.77042 21.8803 8.22604 21.4247L14.0007 15.65L19.7754 21.4247C20.231 21.8803 20.9697 21.8803 21.4253 21.4247C21.8809 20.9691 21.8809 20.2304 21.4253 19.7748L15.6506 14.0001L21.4254 8.22533C21.881 7.76972 21.881 7.03102 21.4254 6.57541C20.9697 6.1198 20.2311 6.1198 19.7754 6.57541L14.0007 12.3501L8.226 6.57543C7.77039 6.11982 7.0317 6.11982 6.57608 6.57543C6.12047 7.03104 6.12047 7.76973 6.57608 8.22535L12.3508 14.0001L6.57612 19.7747Z" fill="white"/>
</svg>
