<svg width="24" height="24" viewBox="0 0 24 24" fill="none" xmlns="http://www.w3.org/2000/svg">
<path fill-rule="evenodd" clip-rule="evenodd" d="M16.3755 10.8685L13.1199 7.60822L5.22981 15.5096C5.15321 15.5863 5.09575 15.6726 5.05745 15.7685C5.01915 15.8644 5 15.9635 5 16.0658V18.2329C5 18.4502 5.07341 18.6324 5.22023 18.7795C5.36706 18.9265 5.54899 19 5.76603 19H7.93007C8.0322 19 8.13115 18.9808 8.2269 18.9425C8.32266 18.9041 8.40883 18.8466 8.48544 18.7699L16.3755 10.8685ZM19.1924 10.8589L19.9931 10.057C20.6764 9.37274 21.0279 8.48433 20.9983 7.51803C20.9699 6.59426 20.608 5.75602 19.9548 5.10186L18.8824 4.02789C18.2015 3.34604 17.3264 3 16.3851 3C15.4438 3 14.5688 3.34604 13.8879 4.02789L13.1295 4.78736L13.1199 4.77777L3.81459 14.0964C3.55643 14.3549 3.34383 14.6669 3.20013 15.0266C3.0685 15.3562 3 15.7069 3 16.0658V18.2329C3 18.953 3.26496 19.6518 3.80501 20.1927C4.34521 20.7336 5.04442 21 5.76603 21H7.93007C8.28955 21 8.64075 20.9312 8.9706 20.7991C9.33066 20.6548 9.64251 20.4416 9.90066 20.1831L19.202 10.8685L19.1924 10.8589ZM18.5779 8.64384C18.616 8.60566 18.6515 8.56646 18.6845 8.52624C18.7502 8.44607 18.8056 8.36184 18.8508 8.27354C18.9575 8.06488 19.007 7.83352 18.9992 7.57945C18.9864 7.16393 18.8332 6.80913 18.5396 6.51507L17.4671 5.4411C17.1735 5.14703 16.8128 5 16.3851 5C16.1328 5 15.9038 5.05117 15.6981 5.15352C15.5552 5.22466 15.4235 5.32052 15.3031 5.4411L14.2307 6.51507L17.4863 9.73699L18.5779 8.64384Z" fill="#191F28"/>
</svg>
