<svg width="48" height="48" viewBox="0 0 48 48" fill="none" xmlns="http://www.w3.org/2000/svg">
<path fill-rule="evenodd" clip-rule="evenodd" d="M18 26C19.0609 26 20.0783 26.4214 20.8284 27.1716C21.5786 27.9217 22 28.9391 22 30V38C22 39.0609 21.5786 40.0783 20.8284 40.8284C20.0783 41.5786 19.0609 42 18 42H10C8.93913 42 7.92172 41.5786 7.17157 40.8284C6.42143 40.0783 6 39.0609 6 38V30C6 28.9391 6.42143 27.9217 7.17157 27.1716C7.92172 26.4214 8.93913 26 10 26H18ZM38 26C39.0609 26 40.0783 26.4214 40.8284 27.1716C41.5786 27.9217 42 28.9391 42 30V38C42 39.0609 41.5786 40.0783 40.8284 40.8284C40.0783 41.5786 39.0609 42 38 42H30C28.9391 42 27.9217 41.5786 27.1716 40.8284C26.4214 40.0783 26 39.0609 26 38V30C26 28.9391 26.4214 27.9217 27.1716 27.1716C27.9217 26.4214 28.9391 26 30 26H38ZM18 6C19.0609 6 20.0783 6.42143 20.8284 7.17157C21.5786 7.92172 22 8.93913 22 10V18C22 19.0609 21.5786 20.0783 20.8284 20.8284C20.0783 21.5786 19.0609 22 18 22H10C8.93913 22 7.92172 21.5786 7.17157 20.8284C6.42143 20.0783 6 19.0609 6 18V10C6 8.93913 6.42143 7.92172 7.17157 7.17157C7.92172 6.42143 8.93913 6 10 6H18ZM38 6C39.0609 6 40.0783 6.42143 40.8284 7.17157C41.5786 7.92172 42 8.93913 42 10V18C42 19.0609 41.5786 20.0783 40.8284 20.8284C40.0783 21.5786 39.0609 22 38 22H30C28.9391 22 27.9217 21.5786 27.1716 20.8284C26.4214 20.0783 26 19.0609 26 18V10C26 8.93913 26.4214 7.92172 27.1716 7.17157C27.9217 6.42143 28.9391 6 30 6H38Z" fill="white"/>
</svg>
