<svg width="36" height="36" viewBox="0 0 36 36" fill="none" xmlns="http://www.w3.org/2000/svg">
<path fill-rule="evenodd" clip-rule="evenodd" d="M30.4625 12.7273L18.8554 3.30515C18.6125 3.10758 18.3112 3 18.0007 3C17.6902 3 17.3888 3.10758 17.146 3.30515L5.53746 12.7273C5.21392 12.99 4.95261 13.3238 4.77299 13.7039C4.59336 14.084 4.50005 14.5005 4.5 14.9225V28.1335C4.5 29.0263 4.84745 29.8826 5.46593 30.514C6.0844 31.1453 6.92323 31.5 7.79788 31.5H15.2525V24.8342C15.2525 24.4622 15.3972 24.1054 15.6549 23.8424C15.9126 23.5793 16.2621 23.4315 16.6266 23.4315H19.3748C19.7392 23.4315 20.0888 23.5793 20.3464 23.8424C20.6041 24.1054 20.7489 24.4622 20.7489 24.8342V31.5H28.2021C29.0768 31.5 29.9156 31.1453 30.5341 30.514C31.1525 29.8826 31.5 29.0263 31.5 28.1335V14.924C31.5 14.5019 31.4066 14.0854 31.227 13.7053C31.0474 13.3252 30.7861 12.99 30.4625 12.7273Z" fill="white"/>
</svg>
