<svg width="48" height="48" viewBox="0 0 48 48" fill="none" xmlns="http://www.w3.org/2000/svg">
<path d="M20 38C19.4333 38 18.9583 37.8083 18.575 37.425C18.1917 37.0417 18 36.5667 18 36C18 35.4333 18.1917 34.9583 18.575 34.575C18.9583 34.1917 19.4333 34 20 34H40C40.5667 34 41.0417 34.1917 41.425 34.575C41.8083 34.9583 42 35.4333 42 36C42 36.5667 41.8083 37.0417 41.425 37.425C41.0417 37.8083 40.5667 38 40 38H20ZM20 26C19.4333 26 18.9583 25.8083 18.575 25.425C18.1917 25.0417 18 24.5667 18 24C18 23.4333 18.1917 22.9583 18.575 22.575C18.9583 22.1917 19.4333 22 20 22H40C40.5667 22 41.0417 22.1917 41.425 22.575C41.8083 22.9583 42 23.4333 42 24C42 24.5667 41.8083 25.0417 41.425 25.425C41.0417 25.8083 40.5667 26 40 26H20ZM20 14C19.4333 14 18.9583 13.8083 18.575 13.425C18.1917 13.0417 18 12.5667 18 12C18 11.4333 18.1917 10.9583 18.575 10.575C18.9583 10.1917 19.4333 10 20 10H40C40.5667 10 41.0417 10.1917 41.425 10.575C41.8083 10.9583 42 11.4333 42 12C42 12.5667 41.8083 13.0417 41.425 13.425C41.0417 13.8083 40.5667 14 40 14H20ZM10 40C8.9 40 7.95833 39.6083 7.175 38.825C6.39167 38.0417 6 37.1 6 36C6 34.9 6.39167 33.9583 7.175 33.175C7.95833 32.3917 8.9 32 10 32C11.1 32 12.0417 32.3917 12.825 33.175C13.6083 33.9583 14 34.9 14 36C14 37.1 13.6083 38.0417 12.825 38.825C12.0417 39.6083 11.1 40 10 40ZM10 28C8.9 28 7.95833 27.6083 7.175 26.825C6.39167 26.0417 6 25.1 6 24C6 22.9 6.39167 21.9583 7.175 21.175C7.95833 20.3917 8.9 20 10 20C11.1 20 12.0417 20.3917 12.825 21.175C13.6083 21.9583 14 22.9 14 24C14 25.1 13.6083 26.0417 12.825 26.825C12.0417 27.6083 11.1 28 10 28ZM10 16C8.9 16 7.95833 15.6083 7.175 14.825C6.39167 14.0417 6 13.1 6 12C6 10.9 6.39167 9.95833 7.175 9.175C7.95833 8.39167 8.9 8 10 8C11.1 8 12.0417 8.39167 12.825 9.175C13.6083 9.95833 14 10.9 14 12C14 13.1 13.6083 14.0417 12.825 14.825C12.0417 15.6083 11.1 16 10 16Z" fill="white"/>
</svg>
