<svg width="36" height="36" viewBox="0 0 36 36" fill="none" xmlns="http://www.w3.org/2000/svg">
<path fill-rule="evenodd" clip-rule="evenodd" d="M10.4787 13.5837L5.42756 27.6258C4.87836 27.3513 4.49972 26.7831 4.5 26.124V7.677C4.5 6.75102 5.24644 6 6.16678 6H13.5506C13.9928 6 14.4165 6.17664 14.7293 6.49136L17.4839 9.26316H29.3305C30.2508 9.26316 30.9973 10.0142 30.9973 10.9402V12.4774H12.0463C11.3441 12.4774 10.7173 12.9196 10.4787 13.5837ZM33.6666 14.9933C33.938 14.9933 34.1927 15.1264 34.3489 15.3502C34.5047 15.5738 34.5425 15.86 34.4497 16.1166L30.1947 27.9468C30.0752 28.2788 29.7619 28.4999 29.411 28.4999H8.95943C8.68802 28.4999 8.43329 28.3668 8.27716 28.143C8.1216 27.9194 8.08354 27.6332 8.17577 27.3766L12.431 15.5464C12.5502 15.2144 12.8636 14.9933 13.2147 14.9933H33.6666Z" fill="#ADB3BE"/>
</svg>
