<svg width="36" height="36" viewBox="0 0 36 36" fill="none" xmlns="http://www.w3.org/2000/svg">
<path fill-rule="evenodd" clip-rule="evenodd" d="M18.1063 7.07559C15.6943 4.66359 12.0823 4.17159 9.17834 5.58759L13.5343 9.94359C14.0023 10.4116 14.0023 11.1676 13.5343 11.6356L11.6263 13.5436C11.1583 14.0236 10.4023 14.0236 9.93434 13.5436L5.57834 9.18759C4.17434 12.1036 4.66634 15.6916 7.07834 18.1036C9.31034 20.3356 12.5743 20.9236 15.3463 19.8796L24.8983 29.4316C26.1343 30.6676 28.1263 30.6676 29.3503 29.4316C30.5863 28.1956 30.5863 26.2036 29.3503 24.9796L19.8463 15.4636C20.9503 12.6556 20.3743 9.34359 18.1063 7.07559Z" fill="#ADB3BE"/>
</svg>
