<svg width="36" height="36" viewBox="0 0 36 36" fill="none" xmlns="http://www.w3.org/2000/svg">
<path fill-rule="evenodd" clip-rule="evenodd" d="M20.976 3.813C21.1065 4.0665 21.1395 4.392 21.204 5.043C21.327 6.273 21.3885 6.888 21.6465 7.227C21.8072 7.43748 22.0209 7.60165 22.2656 7.70282C22.5104 7.80399 22.7776 7.83856 23.04 7.803C23.46 7.7475 23.94 7.356 24.897 6.573C25.4025 6.1575 25.656 5.9505 25.9275 5.8635C26.2733 5.75301 26.6474 5.77166 26.9805 5.916C27.243 6.03 27.4755 6.261 27.936 6.723L29.277 8.064C29.739 8.526 29.97 8.757 30.084 9.0195C30.2283 9.35258 30.247 9.72671 30.1365 10.0725C30.0495 10.344 29.8425 10.5975 29.4285 11.103C28.644 12.0615 28.2525 12.54 28.1955 12.9615C28.1604 13.2238 28.1953 13.4908 28.2967 13.7353C28.3982 13.9798 28.5625 14.1931 28.773 14.3535C29.1105 14.6115 29.727 14.673 30.9585 14.796C31.608 14.8605 31.9335 14.8935 32.1885 15.024C32.5102 15.1908 32.7606 15.4684 32.8935 15.8055C33 16.071 33 16.398 33 17.052V18.948C33 19.602 33 19.929 32.895 20.193C32.7617 20.5312 32.5101 20.8094 32.187 20.976C31.9335 21.1065 31.608 21.1395 30.957 21.204C29.727 21.327 29.112 21.3885 28.773 21.6465C28.5625 21.8072 28.3983 22.0209 28.2972 22.2656C28.196 22.5104 28.1614 22.7776 28.197 23.04C28.254 23.46 28.6455 23.94 29.4285 24.897C29.8425 25.4025 30.0495 25.6545 30.1365 25.9275C30.247 26.2733 30.2283 26.6474 30.084 26.9805C29.97 27.243 29.739 27.474 29.277 27.936L27.936 29.2755C27.474 29.739 27.243 29.97 26.9805 30.0825C26.6474 30.2268 26.2733 30.2455 25.9275 30.135C25.656 30.048 25.4025 29.841 24.897 29.427C23.9385 28.644 23.46 28.2525 23.04 28.197C22.7776 28.1614 22.5104 28.196 22.2656 28.2972C22.0209 28.3983 21.8072 28.5625 21.6465 28.773C21.3885 29.1105 21.327 29.7255 21.204 30.957C21.1395 31.608 21.1065 31.9335 20.976 32.187C20.8098 32.5098 20.5321 32.7614 20.1945 32.895C19.929 33 19.602 33 18.948 33H17.052C16.398 33 16.071 33 15.807 32.895C15.4688 32.7617 15.1906 32.5101 15.024 32.187C14.8935 31.9335 14.8605 31.608 14.796 30.957C14.673 29.727 14.6115 29.112 14.3535 28.773C14.1929 28.5628 13.9795 28.3987 13.7351 28.2976C13.4906 28.1964 13.2237 28.1617 12.9615 28.197C12.54 28.2525 12.0615 28.644 11.103 29.427C10.5975 29.8425 10.344 30.0495 10.0725 30.1365C9.72671 30.247 9.35258 30.2283 9.0195 30.084C8.757 29.97 8.5245 29.739 8.064 29.277L6.723 27.936C6.261 27.474 6.03 27.243 5.916 26.9805C5.77166 26.6474 5.75301 26.2733 5.8635 25.9275C5.9505 25.656 6.1575 25.4025 6.5715 24.897C7.356 23.9385 7.7475 23.46 7.803 23.0385C7.83828 22.7763 7.80358 22.5094 7.70242 22.2649C7.60126 22.0205 7.43724 21.8071 7.227 21.6465C6.8895 21.3885 6.273 21.327 5.0415 21.204C4.392 21.1395 4.0665 21.1065 3.8115 20.976C3.48982 20.8092 3.23939 20.5316 3.1065 20.1945C3 19.929 3 19.602 3 18.948V17.052C3 16.398 3 16.071 3.105 15.807C3.23833 15.4688 3.48992 15.1906 3.813 15.024C4.0665 14.8935 4.392 14.8605 5.043 14.796C6.273 14.673 6.8895 14.6115 7.227 14.3535C7.43751 14.1931 7.60183 13.9798 7.70325 13.7353C7.80468 13.4908 7.83961 13.2238 7.8045 12.9615C7.7475 12.54 7.3545 12.0615 6.5715 11.1015C6.1575 10.596 5.9505 10.344 5.8635 10.071C5.75301 9.72521 5.77166 9.35108 5.916 9.018C6.03 8.757 6.261 8.5245 6.723 8.0625L8.064 6.723C8.526 6.261 8.757 6.0285 9.0195 5.916C9.35258 5.77166 9.72671 5.75301 10.0725 5.8635C10.344 5.9505 10.5975 6.1575 11.103 6.5715C12.0615 7.3545 12.54 7.746 12.96 7.803C13.2228 7.83867 13.4904 7.80401 13.7355 7.70256C13.9805 7.60111 14.1943 7.4365 14.355 7.2255C14.61 6.888 14.673 6.273 14.796 5.0415C14.8605 4.392 14.8935 4.0665 15.024 3.8115C15.1905 3.48926 15.4681 3.23827 15.8055 3.105C16.071 3 16.398 3 17.052 3H18.948C19.602 3 19.929 3 20.193 3.105C20.5312 3.23833 20.8094 3.48992 20.976 3.813ZM18 24C19.5913 24 21.1174 23.3679 22.2426 22.2426C23.3679 21.1174 24 19.5913 24 18C24 16.4087 23.3679 14.8826 22.2426 13.7574C21.1174 12.6321 19.5913 12 18 12C16.4087 12 14.8826 12.6321 13.7574 13.7574C12.6321 14.8826 12 16.4087 12 18C12 19.5913 12.6321 21.1174 13.7574 22.2426C14.8826 23.3679 16.4087 24 18 24Z" fill="white"/>
</svg>
