<svg width="222" height="80" viewBox="0 0 222 80" fill="none" xmlns="http://www.w3.org/2000/svg">
<mask id="path-3-outside-1_92_1209" maskUnits="userSpaceOnUse" x="24.5" y="13" width="174" height="49" fill="black">
<rect fill="white" x="24.5" y="13" width="174" height="49"/>
<path d="M26.2659 53.368C26.3219 52.416 28.7299 51.352 29.6259 51.184C30.0739 51.128 30.3539 51.296 30.3539 51.296C30.7459 51.744 31.2499 52.192 31.6419 52.528C35.1139 55.328 39.2579 55.832 41.1059 55.832C48.1059 55.776 48.8339 50.176 48.8339 48.44C48.8339 46.032 47.5459 42.392 44.0179 41.44C40.4339 40.544 37.5779 40.264 34.0499 38.864C30.8579 37.24 27.6099 34.944 26.8259 30.128C25.8739 23.24 31.7539 17.024 40.4339 16.408C45.1379 16.072 50.3459 18.032 51.8579 21.784C52.0819 22.288 52.2499 23.072 52.2499 23.184C52.2499 23.296 52.4179 23.8 51.4659 23.968H50.7939C49.8979 23.968 48.8339 23.968 48.1619 23.744C48.1059 23.52 48.1059 23.296 47.8259 22.848C46.7619 21.056 44.4659 19.712 40.4339 19.712C35.3379 19.712 31.7539 23.408 31.7539 27.272C31.7539 31.808 33.0979 34.328 39.0339 36.512C43.3459 38.024 47.3219 37.296 51.0739 40.32C53.4259 42.112 54.2099 44.968 54.2099 47.936C54.2099 54.432 47.4339 59.136 41.2739 59.136C38.8099 59.136 36.2899 58.8 33.6579 58.016C30.6339 57.064 28.1699 55.72 26.2659 53.368ZM82.8504 35.56C79.0984 35.728 74.6184 36.008 70.1384 36.064C70.3624 43.232 70.8104 50.68 71.6504 58.744C70.4184 59.92 68.3464 59.64 66.9464 59.584C66.6664 59.584 66.5544 59.248 66.5544 59.08C65.6584 50.008 65.2104 42.504 64.9864 36.064C62.9144 36.008 60.8424 35.896 58.9944 35.784C57.9864 35.728 56.8664 35.504 57.4824 34.44C57.6504 34.048 58.6024 33.04 59.4984 32.536C61.1784 32.704 63.0264 32.816 64.9304 32.816C64.7624 28.112 64.8744 23.968 64.9864 20.216C65.7144 19.712 67.2264 19.04 68.2344 18.592H68.6824C69.3544 18.592 69.8024 19.208 69.9704 19.936C69.9704 24.248 69.9704 28.504 70.0824 32.872C74.3944 32.816 78.7624 32.704 82.9064 32.48C83.1864 32.48 83.4104 32.648 83.4104 32.816C83.3544 33.768 83.0744 35.112 82.8504 35.56ZM90.5631 52.36C89.2751 47.376 89.4991 41.944 89.2191 35L91.0111 33.824C91.8511 33.32 92.3551 32.928 93.3071 32.984C93.5871 32.984 93.6991 32.984 93.8671 33.376C94.0351 33.656 94.2591 34.888 94.2591 35.28C94.2031 37.688 94.5951 46.648 94.9871 49.168C95.8831 54.88 98.8511 55.888 101.931 55.832C105.067 55.776 107.139 51.016 107.307 49.952C107.083 43.68 107.363 38.696 107.643 33.152C107.699 31.696 108.819 31.024 110.163 30.8C111.619 30.52 112.067 30.632 112.347 30.688C112.795 30.688 112.683 31.472 112.627 32.592C112.459 35.168 112.403 38.528 112.515 43.904C112.515 44.576 112.795 50.96 114.083 57.736C114.083 58.016 114.307 59.248 113.467 59.472C112.627 59.696 111.451 59.864 110.275 59.808C109.827 59.752 109.155 59.752 108.931 59.248C108.763 58.912 108.091 57.344 107.979 56.168C105.123 58.744 102.603 59.416 99.3551 59.192C95.2111 59.024 91.8511 56.84 90.5631 52.36ZM139.534 58.184C138.694 58.576 136.846 59.752 132.814 59.752C131.022 59.752 128.614 59.136 126.99 57.904C123.854 55.552 122.622 51.016 122.622 47.32C122.622 38.304 125.422 29.008 136.454 28.168C138.358 28 139.87 28.672 140.654 29.176C140.822 26.824 140.99 22.96 141.102 16.576C141.718 15.736 143.846 15.064 145.078 14.952C145.246 14.952 145.918 14.84 146.03 15.4V20.216C146.03 27.216 145.134 34.104 145.134 41.16C145.134 46.984 144.91 53.536 144.798 59.304C144.798 59.472 144.518 59.808 144.35 59.808C143.454 60.088 142.39 60.2 141.326 60.2C140.878 60.2 140.206 60.2 139.87 59.808C139.814 59.472 139.534 58.408 139.534 58.184ZM127.27 46.032C127.27 56.784 132.366 57.288 134.942 57.288C136.51 57.288 138.638 55.944 139.534 54.768C139.87 50.4 140.038 45.864 140.038 33.88C138.974 32.312 137.854 30.968 135.838 30.968C130.966 30.968 127.27 37.8 127.27 46.032ZM157.296 39.928C158.248 39.144 159.144 38.528 161.104 38.024C162.504 37.576 162.448 39.144 162.448 39.536C162.84 47.32 162.84 50.456 162.84 57.848C162.84 59.304 161.776 59.528 161.216 59.584C159.984 59.696 159.592 59.584 158.248 59.36C157.8 58.744 157.464 55.832 157.464 54.656L157.296 39.928ZM156.512 30.352C156.288 27.496 159.48 25.256 162.112 25.424C163.344 25.48 163.512 27.048 163.512 29.12C163.512 31.304 163.12 33.712 159.088 33.824C157.128 33.88 156.624 31.36 156.512 30.352ZM196.589 35.56C192.837 35.728 188.357 36.008 183.877 36.064C184.101 43.232 184.549 50.68 185.389 58.744C184.157 59.92 182.085 59.64 180.685 59.584C180.405 59.584 180.293 59.248 180.293 59.08C179.397 50.008 178.949 42.504 178.725 36.064C176.653 36.008 174.581 35.896 172.733 35.784C171.725 35.728 170.605 35.504 171.221 34.44C171.389 34.048 172.341 33.04 173.237 32.536C174.917 32.704 176.765 32.816 178.669 32.816C178.501 28.112 178.613 23.968 178.725 20.216C179.453 19.712 180.965 19.04 181.973 18.592H182.421C183.093 18.592 183.541 19.208 183.709 19.936C183.709 24.248 183.709 28.504 183.821 32.872C188.133 32.816 192.501 32.704 196.645 32.48C196.925 32.48 197.149 32.648 197.149 32.816C197.093 33.768 196.813 35.112 196.589 35.56Z"/>
</mask>
<path d="M26.2659 53.368C26.3219 52.416 28.7299 51.352 29.6259 51.184C30.0739 51.128 30.3539 51.296 30.3539 51.296C30.7459 51.744 31.2499 52.192 31.6419 52.528C35.1139 55.328 39.2579 55.832 41.1059 55.832C48.1059 55.776 48.8339 50.176 48.8339 48.44C48.8339 46.032 47.5459 42.392 44.0179 41.44C40.4339 40.544 37.5779 40.264 34.0499 38.864C30.8579 37.24 27.6099 34.944 26.8259 30.128C25.8739 23.24 31.7539 17.024 40.4339 16.408C45.1379 16.072 50.3459 18.032 51.8579 21.784C52.0819 22.288 52.2499 23.072 52.2499 23.184C52.2499 23.296 52.4179 23.8 51.4659 23.968H50.7939C49.8979 23.968 48.8339 23.968 48.1619 23.744C48.1059 23.52 48.1059 23.296 47.8259 22.848C46.7619 21.056 44.4659 19.712 40.4339 19.712C35.3379 19.712 31.7539 23.408 31.7539 27.272C31.7539 31.808 33.0979 34.328 39.0339 36.512C43.3459 38.024 47.3219 37.296 51.0739 40.32C53.4259 42.112 54.2099 44.968 54.2099 47.936C54.2099 54.432 47.4339 59.136 41.2739 59.136C38.8099 59.136 36.2899 58.8 33.6579 58.016C30.6339 57.064 28.1699 55.72 26.2659 53.368ZM82.8504 35.56C79.0984 35.728 74.6184 36.008 70.1384 36.064C70.3624 43.232 70.8104 50.68 71.6504 58.744C70.4184 59.92 68.3464 59.64 66.9464 59.584C66.6664 59.584 66.5544 59.248 66.5544 59.08C65.6584 50.008 65.2104 42.504 64.9864 36.064C62.9144 36.008 60.8424 35.896 58.9944 35.784C57.9864 35.728 56.8664 35.504 57.4824 34.44C57.6504 34.048 58.6024 33.04 59.4984 32.536C61.1784 32.704 63.0264 32.816 64.9304 32.816C64.7624 28.112 64.8744 23.968 64.9864 20.216C65.7144 19.712 67.2264 19.04 68.2344 18.592H68.6824C69.3544 18.592 69.8024 19.208 69.9704 19.936C69.9704 24.248 69.9704 28.504 70.0824 32.872C74.3944 32.816 78.7624 32.704 82.9064 32.48C83.1864 32.48 83.4104 32.648 83.4104 32.816C83.3544 33.768 83.0744 35.112 82.8504 35.56ZM90.5631 52.36C89.2751 47.376 89.4991 41.944 89.2191 35L91.0111 33.824C91.8511 33.32 92.3551 32.928 93.3071 32.984C93.5871 32.984 93.6991 32.984 93.8671 33.376C94.0351 33.656 94.2591 34.888 94.2591 35.28C94.2031 37.688 94.5951 46.648 94.9871 49.168C95.8831 54.88 98.8511 55.888 101.931 55.832C105.067 55.776 107.139 51.016 107.307 49.952C107.083 43.68 107.363 38.696 107.643 33.152C107.699 31.696 108.819 31.024 110.163 30.8C111.619 30.52 112.067 30.632 112.347 30.688C112.795 30.688 112.683 31.472 112.627 32.592C112.459 35.168 112.403 38.528 112.515 43.904C112.515 44.576 112.795 50.96 114.083 57.736C114.083 58.016 114.307 59.248 113.467 59.472C112.627 59.696 111.451 59.864 110.275 59.808C109.827 59.752 109.155 59.752 108.931 59.248C108.763 58.912 108.091 57.344 107.979 56.168C105.123 58.744 102.603 59.416 99.3551 59.192C95.2111 59.024 91.8511 56.84 90.5631 52.36ZM139.534 58.184C138.694 58.576 136.846 59.752 132.814 59.752C131.022 59.752 128.614 59.136 126.99 57.904C123.854 55.552 122.622 51.016 122.622 47.32C122.622 38.304 125.422 29.008 136.454 28.168C138.358 28 139.87 28.672 140.654 29.176C140.822 26.824 140.99 22.96 141.102 16.576C141.718 15.736 143.846 15.064 145.078 14.952C145.246 14.952 145.918 14.84 146.03 15.4V20.216C146.03 27.216 145.134 34.104 145.134 41.16C145.134 46.984 144.91 53.536 144.798 59.304C144.798 59.472 144.518 59.808 144.35 59.808C143.454 60.088 142.39 60.2 141.326 60.2C140.878 60.2 140.206 60.2 139.87 59.808C139.814 59.472 139.534 58.408 139.534 58.184ZM127.27 46.032C127.27 56.784 132.366 57.288 134.942 57.288C136.51 57.288 138.638 55.944 139.534 54.768C139.87 50.4 140.038 45.864 140.038 33.88C138.974 32.312 137.854 30.968 135.838 30.968C130.966 30.968 127.27 37.8 127.27 46.032ZM157.296 39.928C158.248 39.144 159.144 38.528 161.104 38.024C162.504 37.576 162.448 39.144 162.448 39.536C162.84 47.32 162.84 50.456 162.84 57.848C162.84 59.304 161.776 59.528 161.216 59.584C159.984 59.696 159.592 59.584 158.248 59.36C157.8 58.744 157.464 55.832 157.464 54.656L157.296 39.928ZM156.512 30.352C156.288 27.496 159.48 25.256 162.112 25.424C163.344 25.48 163.512 27.048 163.512 29.12C163.512 31.304 163.12 33.712 159.088 33.824C157.128 33.88 156.624 31.36 156.512 30.352ZM196.589 35.56C192.837 35.728 188.357 36.008 183.877 36.064C184.101 43.232 184.549 50.68 185.389 58.744C184.157 59.92 182.085 59.64 180.685 59.584C180.405 59.584 180.293 59.248 180.293 59.08C179.397 50.008 178.949 42.504 178.725 36.064C176.653 36.008 174.581 35.896 172.733 35.784C171.725 35.728 170.605 35.504 171.221 34.44C171.389 34.048 172.341 33.04 173.237 32.536C174.917 32.704 176.765 32.816 178.669 32.816C178.501 28.112 178.613 23.968 178.725 20.216C179.453 19.712 180.965 19.04 181.973 18.592H182.421C183.093 18.592 183.541 19.208 183.709 19.936C183.709 24.248 183.709 28.504 183.821 32.872C188.133 32.816 192.501 32.704 196.645 32.48C196.925 32.48 197.149 32.648 197.149 32.816C197.093 33.768 196.813 35.112 196.589 35.56Z" fill="white"/>
<path d="M26.2659 53.368L25.2676 53.3093L25.2448 53.6961L25.4886 53.9972L26.2659 53.368ZM29.6259 51.184L29.5018 50.1917L29.4716 50.1955L29.4416 50.2011L29.6259 51.184ZM30.3539 51.296L31.1065 50.6375L31.003 50.5193L30.8684 50.4385L30.3539 51.296ZM31.6419 52.528L30.9911 53.2873L31.0025 53.297L31.0141 53.3064L31.6419 52.528ZM41.1059 55.832V56.832L41.1139 56.832L41.1059 55.832ZM44.0179 41.44L44.2784 40.4745L44.2694 40.4721L44.2604 40.4699L44.0179 41.44ZM34.0499 38.864L33.5964 39.7553L33.6378 39.7763L33.681 39.7935L34.0499 38.864ZM26.8259 30.128L25.8353 30.2649L25.8369 30.2768L25.8389 30.2887L26.8259 30.128ZM40.4339 16.408L40.5047 17.4055L40.5051 17.4055L40.4339 16.408ZM51.8579 21.784L50.9304 22.1578L50.9369 22.1741L50.9441 22.1901L51.8579 21.784ZM51.4659 23.968V24.968H51.5534L51.6397 24.9528L51.4659 23.968ZM48.1619 23.744L47.1917 23.9865L47.3249 24.5191L47.8456 24.6927L48.1619 23.744ZM47.8259 22.848L46.966 23.3585L46.9718 23.3683L46.9779 23.378L47.8259 22.848ZM39.0339 36.512L38.6886 37.4505L38.6958 37.4531L38.703 37.4557L39.0339 36.512ZM51.0739 40.32L50.4464 41.0986L50.457 41.1072L50.4678 41.1154L51.0739 40.32ZM33.6579 58.016L33.3576 58.9698L33.365 58.9722L33.3724 58.9744L33.6579 58.016ZM27.2641 53.4267C27.2553 53.5768 27.1839 53.5582 27.3788 53.3723C27.5434 53.2153 27.7994 53.0347 28.1215 52.8533C28.7782 52.4836 29.4999 52.2251 29.8102 52.1669L29.4416 50.2011C28.8559 50.3109 27.9255 50.6684 27.1402 51.1106C26.7413 51.3353 26.3289 51.6097 25.9982 51.9252C25.6978 52.2118 25.3044 52.6832 25.2676 53.3093L27.2641 53.4267ZM29.7499 52.1763C29.8236 52.1671 29.8716 52.1773 29.8902 52.1825C29.9 52.1852 29.902 52.1867 29.8948 52.1834C29.891 52.1818 29.8848 52.1788 29.8757 52.1741C29.8711 52.1717 29.8659 52.1688 29.8598 52.1654C29.8568 52.1637 29.8536 52.1619 29.8502 52.1599C29.8485 52.1589 29.8467 52.1579 29.8449 52.1568C29.844 52.1563 29.8431 52.1557 29.8422 52.1552C29.8417 52.1549 29.8413 52.1546 29.8408 52.1543C29.8406 52.1542 29.8402 52.154 29.8401 52.1539C29.8397 52.1537 29.8394 52.1535 30.3539 51.296C30.8684 50.4385 30.868 50.4383 30.8677 50.4381C30.8675 50.438 30.8672 50.4378 30.8669 50.4376C30.8664 50.4374 30.8659 50.4371 30.8654 50.4368C30.8645 50.4362 30.8634 50.4356 30.8624 50.435C30.8603 50.4337 30.8582 50.4325 30.8559 50.4311C30.8514 50.4285 30.8466 50.4258 30.8414 50.4228C30.8311 50.417 30.8193 50.4106 30.8062 50.4037C30.7801 50.39 30.7485 50.3743 30.7115 50.3578C30.6377 50.3248 30.5417 50.2878 30.4255 50.2555C30.1921 50.1907 29.8761 50.1449 29.5018 50.1917L29.7499 52.1763ZM29.6013 51.9545C30.0442 52.4606 30.5955 52.9482 30.9911 53.2873L32.2927 51.7687C31.9042 51.4358 31.4476 51.0274 31.1065 50.6375L29.6013 51.9545ZM31.0141 53.3064C34.7302 56.3032 39.1322 56.832 41.1059 56.832V54.832C39.3835 54.832 35.4976 54.3528 32.2696 51.7496L31.0141 53.3064ZM41.1139 56.832C44.9309 56.8014 47.1832 55.2317 48.433 53.3115C49.6376 51.4607 49.8339 49.4069 49.8339 48.44H47.8339C47.8339 49.2091 47.6662 50.8233 46.7568 52.2205C45.8925 53.5483 44.2808 54.8066 41.0979 54.832L41.1139 56.832ZM49.8339 48.44C49.8339 45.8217 48.4388 41.5972 44.2784 40.4745L43.7574 42.4055C46.653 43.1868 47.8339 46.2423 47.8339 48.44H49.8339ZM44.2604 40.4699C40.5171 39.534 37.8706 39.3043 34.4187 37.9345L33.681 39.7935C37.2852 41.2237 40.3507 41.554 43.7753 42.4101L44.2604 40.4699ZM34.5033 37.9727C31.4029 36.3953 28.5188 34.3035 27.8129 29.9673L25.8389 30.2887C26.701 35.5845 30.3129 38.0847 33.5964 39.7553L34.5033 37.9727ZM27.8165 29.9911C26.9673 23.8473 32.2136 17.9939 40.5047 17.4055L40.3631 15.4105C31.2942 16.0541 24.7804 22.6327 25.8353 30.2649L27.8165 29.9911ZM40.5051 17.4055C42.7046 17.2484 45.0185 17.6307 46.9393 18.4779C48.868 19.3286 50.3027 20.6002 50.9304 22.1578L52.7854 21.4102C51.9011 19.2158 49.9758 17.6314 47.7464 16.648C45.5093 15.6613 42.8672 15.2316 40.3626 15.4105L40.5051 17.4055ZM50.9441 22.1901C51.0231 22.3679 51.1048 22.6284 51.1692 22.8794C51.2001 23 51.2239 23.1061 51.2392 23.1833C51.2469 23.2223 51.2514 23.2486 51.2535 23.2625C51.2586 23.2957 51.2499 23.2533 51.2499 23.184H53.2499C53.2499 23.039 53.2155 22.8675 53.201 22.7945C53.1778 22.6774 53.1456 22.535 53.1065 22.3826C53.0309 22.0876 52.9167 21.7041 52.7717 21.3779L50.9441 22.1901ZM51.2499 23.184C51.2499 23.2172 51.2514 23.245 51.2526 23.2635C51.2539 23.2826 51.2555 23.2989 51.2566 23.3099C51.2577 23.3209 51.2588 23.331 51.2595 23.3372C51.2604 23.3451 51.2607 23.3479 51.2612 23.3524C51.2629 23.367 51.2615 23.359 51.2613 23.3435C51.2609 23.3096 51.2649 23.2237 51.3127 23.1235C51.3364 23.0741 51.3659 23.0315 51.3974 22.9974C51.4283 22.9639 51.4545 22.9457 51.4663 22.9385C51.4857 22.9265 51.4468 22.9559 51.2921 22.9832L51.6397 24.9528C52.2745 24.8407 52.8433 24.5588 53.117 23.9865C53.3243 23.5531 53.2499 22.9015 53.2499 23.184H51.2499ZM51.4659 22.968H50.7939V24.968H51.4659V22.968ZM50.7939 22.968C50.3402 22.968 49.8809 22.9677 49.4544 22.9418C49.0158 22.9152 48.6872 22.865 48.4781 22.7953L47.8456 24.6927C48.3085 24.847 48.848 24.9087 49.3334 24.9382C49.8308 24.9683 50.3516 24.968 50.7939 24.968V22.968ZM49.132 23.5015C49.0993 23.3704 49.0607 22.9368 48.6739 22.318L46.9779 23.378C47.0751 23.5335 47.106 23.6205 47.1201 23.6673C47.1286 23.6959 47.1357 23.7258 47.1457 23.7741C47.1532 23.8107 47.171 23.9035 47.1917 23.9865L49.132 23.5015ZM48.6857 22.3375C47.3805 20.1391 44.6799 18.712 40.4339 18.712V20.712C44.2518 20.712 46.1433 21.9729 46.966 23.3585L48.6857 22.3375ZM40.4339 18.712C34.8681 18.712 30.7539 22.7767 30.7539 27.272H32.7539C32.7539 24.0393 35.8077 20.712 40.4339 20.712V18.712ZM30.7539 27.272C30.7539 29.6268 31.0995 31.6445 32.3615 33.3654C33.6106 35.0688 35.6486 36.332 38.6886 37.4505L39.3792 35.5735C36.4832 34.508 34.8811 33.4192 33.9743 32.1826C33.0803 30.9635 32.7539 29.4532 32.7539 27.272H30.7539ZM38.703 37.4557C40.9513 38.244 43.1894 38.4684 45.075 38.831C47.0061 39.2024 48.7537 39.7344 50.4464 41.0986L51.7014 39.5414C49.642 37.8816 47.5256 37.2656 45.4527 36.867C43.3343 36.4596 41.4284 36.292 39.3648 35.5683L38.703 37.4557ZM50.4678 41.1154C52.4638 42.6362 53.2099 45.1136 53.2099 47.936H55.2099C55.2099 44.8224 54.388 41.5878 51.6799 39.5246L50.4678 41.1154ZM53.2099 47.936C53.2099 50.8127 51.7122 53.3476 49.424 55.1937C47.1297 57.0448 44.1152 58.136 41.2739 58.136V60.136C44.5925 60.136 48.0461 58.8752 50.6798 56.7503C53.3196 54.6204 55.2099 51.5553 55.2099 47.936H53.2099ZM41.2739 58.136C38.9037 58.136 36.48 57.8132 33.9434 57.0576L33.3724 58.9744C36.0997 59.7868 38.716 60.136 41.2739 60.136V58.136ZM33.9582 57.0621C31.0475 56.1458 28.7823 54.8872 27.0431 52.7388L25.4886 53.9972C27.5574 56.5528 30.2202 57.9822 33.3576 58.9698L33.9582 57.0621ZM82.8504 35.56L82.8951 36.559L83.4821 36.5327L83.7448 36.0072L82.8504 35.56ZM70.1384 36.064L70.1259 35.0641L69.107 35.0768L69.1389 36.0952L70.1384 36.064ZM71.6504 58.744L72.3409 59.4674L72.6958 59.1285L72.645 58.6404L71.6504 58.744ZM66.9464 59.584L66.9863 58.5848L66.9664 58.584H66.9464V59.584ZM66.5544 59.08H67.5544V59.0307L67.5495 58.9817L66.5544 59.08ZM64.9864 36.064L65.9858 36.0292L65.9531 35.0898L65.0134 35.0644L64.9864 36.064ZM58.9944 35.784L59.0549 34.7858L59.0498 34.7855L58.9944 35.784ZM57.4824 34.44L58.3478 34.941L58.3779 34.8891L58.4015 34.8339L57.4824 34.44ZM59.4984 32.536L59.5979 31.541L59.2835 31.5095L59.0081 31.6644L59.4984 32.536ZM64.9304 32.816V33.816H65.9667L65.9297 32.7803L64.9304 32.816ZM64.9864 20.216L64.4172 19.3938L64.0019 19.6813L63.9868 20.1862L64.9864 20.216ZM68.2344 18.592V17.592H68.0222L67.8282 17.6782L68.2344 18.592ZM69.9704 19.936H70.9704V19.8221L70.9448 19.7111L69.9704 19.936ZM70.0824 32.872L69.0827 32.8976L69.108 33.8847L70.0954 33.8719L70.0824 32.872ZM82.9064 32.48V31.48H82.8794L82.8524 31.4815L82.9064 32.48ZM83.4104 32.816L84.4086 32.8747L84.4104 32.8454V32.816H83.4104ZM82.8056 34.561C79.0299 34.7301 74.5844 35.0083 70.1259 35.0641L70.1509 37.0639C74.6523 37.0077 79.1668 36.7259 82.8951 36.559L82.8056 34.561ZM69.1389 36.0952C69.3635 43.2839 69.8129 50.7563 70.6558 58.8476L72.645 58.6404C71.8078 50.6037 71.3612 43.1801 71.1379 36.0328L69.1389 36.0952ZM70.9599 58.0206C70.5828 58.3806 70.0254 58.5677 69.279 58.6294C68.5134 58.6927 67.7637 58.6159 66.9863 58.5848L66.9064 60.5832C67.529 60.6081 68.5153 60.6993 69.4437 60.6226C70.3914 60.5443 71.486 60.2834 72.3409 59.4674L70.9599 58.0206ZM66.9464 58.584C67.0896 58.584 67.2251 58.6307 67.3317 58.7036C67.4284 58.7698 67.4798 58.8421 67.5029 58.8805C67.5265 58.9199 67.5367 58.9504 67.5417 58.9691C67.5461 58.9853 67.5544 59.0209 67.5544 59.08H65.5544C65.5544 59.3359 65.627 59.6413 65.7879 59.9095C65.9598 60.196 66.335 60.584 66.9464 60.584V58.584ZM67.5495 58.9817C66.6557 49.9317 66.2091 42.4489 65.9858 36.0292L63.987 36.0988C64.2117 42.5591 64.661 50.0843 65.5592 59.1783L67.5495 58.9817ZM65.0134 35.0644C62.958 35.0088 60.899 34.8976 59.0549 34.7858L58.9339 36.7822C60.7857 36.8944 62.8707 37.0072 64.9594 37.0636L65.0134 35.0644ZM59.0498 34.7855C58.8199 34.7728 58.6102 34.7516 58.4347 34.7179C58.2481 34.6821 58.1623 34.6435 58.1412 34.6309C58.1346 34.627 58.2598 34.7051 58.2978 34.8958C58.3299 35.0571 58.2567 35.0984 58.3478 34.941L56.6169 33.939C56.4001 34.3136 56.2359 34.7819 56.3362 35.2862C56.4424 35.8199 56.7952 36.157 57.1176 36.3491C57.4254 36.5325 57.7701 36.6269 58.0578 36.6821C58.3565 36.7394 58.6649 36.7672 58.9389 36.7825L59.0498 34.7855ZM58.4015 34.8339C58.3878 34.866 58.4076 34.8161 58.521 34.6753C58.6195 34.5531 58.7551 34.4034 58.9177 34.2438C59.2496 33.9182 59.6416 33.6028 59.9886 33.4076L59.0081 31.6644C58.4591 31.9732 57.9271 32.4138 57.517 32.8162C57.3087 33.0206 57.1188 33.2279 56.9635 33.4207C56.8231 33.5949 56.661 33.818 56.5632 34.0461L58.4015 34.8339ZM59.3989 33.531C61.1065 33.7018 62.9881 33.816 64.9304 33.816V31.816C63.0647 31.816 61.2503 31.7062 59.5979 31.541L59.3989 33.531ZM65.9297 32.7803C65.763 28.112 65.874 23.9967 65.9859 20.2458L63.9868 20.1862C63.8748 23.9393 63.7617 28.112 63.931 32.8517L65.9297 32.7803ZM65.5556 21.0382C66.1863 20.6015 67.5878 19.9737 68.6405 19.5058L67.8282 17.6782C66.8649 18.1063 65.2424 18.8225 64.4172 19.3938L65.5556 21.0382ZM68.2344 19.592H68.6824V17.592H68.2344V19.592ZM68.6824 19.592C68.6923 19.592 68.6944 19.5931 68.6985 19.5952C68.7059 19.5988 68.7305 19.613 68.7668 19.654C68.8457 19.7432 68.939 19.9138 68.996 20.1609L70.9448 19.7111C70.7456 18.8482 70.0826 17.592 68.6824 17.592V19.592ZM68.9704 19.936C68.9704 24.2461 68.9703 28.5148 69.0827 32.8976L71.082 32.8464C70.9704 28.4932 70.9704 24.2499 70.9704 19.936H68.9704ZM70.0954 33.8719C74.4149 33.8158 78.7977 33.7036 82.9604 33.4785L82.8524 31.4815C78.7271 31.7044 74.3739 31.8162 70.0694 31.8721L70.0954 33.8719ZM82.9064 33.48C82.8533 33.48 82.7787 33.4657 82.6942 33.4072C82.6359 33.3669 82.4104 33.1836 82.4104 32.816H84.4104C84.4104 32.2804 84.0728 31.9291 83.8326 31.7628C83.566 31.5783 83.2394 31.48 82.9064 31.48V33.48ZM82.4121 32.7573C82.3876 33.1737 82.3119 33.6987 82.2138 34.1757C82.1091 34.6855 82.0035 35.0177 81.9559 35.1128L83.7448 36.0072C83.9212 35.6543 84.0677 35.0905 84.1729 34.5783C84.2849 34.0333 84.3771 33.4103 84.4086 32.8747L82.4121 32.7573ZM90.5631 52.36L89.5949 52.6102L89.5983 52.6233L89.602 52.6363L90.5631 52.36ZM89.2191 35L88.6704 34.164L88.1971 34.4746L88.2199 35.0403L89.2191 35ZM91.0111 33.824L90.4966 32.9665L90.4793 32.9769L90.4624 32.988L91.0111 33.824ZM93.3071 32.984L93.2483 33.9823L93.2777 33.984H93.3071V32.984ZM93.8671 33.376L92.9479 33.7699L92.9746 33.8323L93.0096 33.8905L93.8671 33.376ZM94.2591 35.28L95.2588 35.3032L95.2591 35.2916V35.28H94.2591ZM94.9871 49.168L93.9989 49.3217L93.9991 49.323L94.9871 49.168ZM101.931 55.832L101.913 54.8322L101.913 54.8322L101.931 55.832ZM107.307 49.952L108.295 50.108L108.31 50.0127L108.306 49.9163L107.307 49.952ZM107.643 33.152L108.642 33.2024L108.642 33.1904L107.643 33.152ZM110.163 30.8L110.327 31.7864L110.34 31.7844L110.352 31.782L110.163 30.8ZM112.347 30.688L112.151 31.6686L112.248 31.688H112.347V30.688ZM112.627 32.592L113.625 32.6571L113.625 32.6495L113.626 32.6419L112.627 32.592ZM112.515 43.904H113.515V43.8936L113.515 43.8832L112.515 43.904ZM114.083 57.736H115.083V57.6418L115.065 57.5493L114.083 57.736ZM113.467 59.472L113.725 60.4382L113.467 59.472ZM110.275 59.808L110.151 60.8003L110.189 60.805L110.227 60.8069L110.275 59.808ZM108.931 59.248L109.845 58.8419L109.836 58.8211L109.825 58.8008L108.931 59.248ZM107.979 56.168L108.975 56.0732L108.786 54.0935L107.309 55.4254L107.979 56.168ZM99.3551 59.192L99.4239 58.1944L99.4097 58.1934L99.3956 58.1928L99.3551 59.192ZM91.5312 52.1098C90.2787 47.2631 90.5031 42.0229 90.2182 34.9597L88.2199 35.0403C88.4951 41.8651 88.2714 47.4889 89.5949 52.6102L91.5312 52.1098ZM89.7677 35.836L91.5597 34.66L90.4624 32.988L88.6704 34.164L89.7677 35.836ZM91.5256 34.6815C92.4581 34.122 92.6701 33.9483 93.2483 33.9823L93.3658 31.9857C92.04 31.9077 91.2441 32.518 90.4966 32.9665L91.5256 34.6815ZM93.3071 33.984C93.3451 33.984 93.3642 33.9841 93.3793 33.9844C93.3933 33.9848 93.3883 33.9852 93.3732 33.9834C93.3374 33.9792 93.2382 33.9627 93.1252 33.8968C93.0124 33.831 92.9506 33.7539 92.9282 33.722C92.9113 33.6978 92.9187 33.7017 92.9479 33.7699L94.7862 32.9821C94.6916 32.7614 94.5164 32.3929 94.1329 32.1692C93.7684 31.9566 93.3648 31.984 93.3071 31.984V33.984ZM93.0096 33.8905C92.9738 33.8308 92.9899 33.8389 93.0355 34.0036C93.0713 34.1328 93.1095 34.299 93.1448 34.4787C93.2208 34.8655 93.2591 35.189 93.2591 35.28H95.2591C95.2591 34.979 95.1853 34.4905 95.1073 34.0933C95.0656 33.881 95.0163 33.6622 94.9629 33.4694C94.9193 33.3121 94.8444 33.0612 94.7246 32.8615L93.0096 33.8905ZM93.2593 35.2568C93.2304 36.5013 93.3163 39.3767 93.4563 42.231C93.5957 45.075 93.7933 47.9999 93.9989 49.3217L95.9752 49.0143C95.7888 47.8161 95.5945 45.001 95.4539 42.133C95.3138 39.2753 95.2317 36.4667 95.2588 35.3032L93.2593 35.2568ZM93.9991 49.323C94.4706 52.3287 95.5179 54.285 97.028 55.4538C98.5283 56.6151 100.311 56.8616 101.949 56.8318L101.913 54.8322C100.471 54.8584 99.2298 54.6289 98.2521 53.8722C97.2842 53.123 96.3995 51.7193 95.975 49.013L93.9991 49.323ZM101.949 56.8318C104.024 56.7948 105.58 55.2304 106.551 53.8435C107.059 53.1184 107.462 52.3649 107.75 51.72C108.028 51.0977 108.232 50.5051 108.295 50.108L106.319 49.796C106.298 49.9309 106.18 50.3323 105.924 50.9035C105.679 51.4521 105.336 52.0916 104.913 52.6965C104.022 53.9696 102.974 54.8132 101.913 54.8322L101.949 56.8318ZM108.306 49.9163C108.084 43.6941 108.361 38.7523 108.642 33.2024L106.644 33.1016C106.365 38.6397 106.082 43.6659 106.308 49.9877L108.306 49.9163ZM108.642 33.1904C108.659 32.7468 108.822 32.4802 109.059 32.2832C109.329 32.0589 109.755 31.8819 110.327 31.7864L109.999 29.8136C109.228 29.9421 108.421 30.2131 107.781 30.7448C107.108 31.3038 106.683 32.1012 106.644 33.1136L108.642 33.1904ZM110.352 31.782C111.041 31.6496 111.45 31.618 111.696 31.618C111.921 31.618 112.021 31.6427 112.151 31.6686L112.543 29.7074C112.393 29.6773 112.129 29.618 111.696 29.618C111.284 29.618 110.742 29.6704 109.974 29.818L110.352 31.782ZM112.347 31.688C112.253 31.688 112.117 31.6657 111.979 31.5832C111.842 31.5018 111.761 31.3966 111.718 31.3214C111.653 31.2063 111.67 31.1483 111.678 31.2824C111.685 31.3907 111.682 31.5462 111.671 31.7728C111.666 31.8827 111.659 32.0001 111.651 32.1301C111.644 32.2584 111.636 32.3972 111.628 32.5421L113.626 32.6419C113.65 32.1548 113.7 31.5685 113.674 31.1576C113.661 30.9557 113.626 30.6317 113.457 30.3346C113.363 30.1684 113.218 29.9932 113.001 29.8645C112.783 29.7348 112.554 29.688 112.347 29.688V31.688ZM111.629 32.5269C111.459 35.144 111.403 38.5362 111.515 43.9248L113.515 43.8832C113.403 38.5198 113.46 35.192 113.625 32.6571L111.629 32.5269ZM111.515 43.904C111.515 44.6349 111.8 51.0816 113.101 57.9227L115.065 57.5493C113.79 50.8384 113.515 44.5171 113.515 43.904H111.515ZM113.083 57.736C113.083 57.816 113.09 57.9076 113.094 57.9552C113.098 58.0192 113.103 58.0785 113.106 58.1435C113.113 58.2755 113.112 58.3946 113.099 58.4941C113.085 58.5995 113.064 58.6236 113.076 58.6056C113.104 58.5627 113.161 58.5187 113.209 58.5058L113.725 60.4382C114.742 60.167 115.014 59.2633 115.081 58.7559C115.117 58.4844 115.113 58.229 115.104 58.0442C115.099 57.9508 115.093 57.8663 115.088 57.8084C115.083 57.7341 115.083 57.726 115.083 57.736H113.083ZM113.209 58.5058C112.458 58.7062 111.385 58.8597 110.323 58.8091L110.227 60.8069C111.517 60.8683 112.796 60.6858 113.725 60.4382L113.209 58.5058ZM110.399 58.8157C110.33 58.8071 110.26 58.7999 110.2 58.7938C110.137 58.7873 110.082 58.7816 110.028 58.7751C109.918 58.7617 109.842 58.7479 109.787 58.7325C109.731 58.717 109.728 58.7084 109.75 58.7237C109.781 58.7455 109.821 58.7875 109.845 58.8419L108.017 59.6541C108.302 60.2956 108.862 60.5514 109.251 60.6595C109.598 60.7557 110.033 60.7855 110.151 60.8003L110.399 58.8157ZM109.825 58.8008C109.764 58.6776 109.57 58.2419 109.378 57.6932C109.184 57.1369 109.019 56.5408 108.975 56.0732L106.984 56.2628C107.051 56.9712 107.278 57.7471 107.49 58.3528C107.704 58.9661 107.93 59.4824 108.037 59.6952L109.825 58.8008ZM107.309 55.4254C105.96 56.6423 104.733 57.3715 103.499 57.7808C102.264 58.1905 100.96 58.3003 99.4239 58.1944L99.2863 60.1896C100.998 60.3077 102.578 60.1935 104.129 59.6792C105.681 59.1645 107.142 58.2697 108.649 56.9106L107.309 55.4254ZM99.3956 58.1928C97.4877 58.1155 95.8147 57.5772 94.4839 56.5899C93.1589 55.6068 92.1139 54.135 91.5241 52.0837L89.602 52.6363C90.3002 55.065 91.5793 56.9252 93.2922 58.1961C94.9994 59.4628 97.0784 60.1005 99.3146 60.1912L99.3956 58.1928ZM139.534 58.184H140.534V56.6138L139.111 57.2778L139.534 58.184ZM126.99 57.904L127.594 57.1073L127.59 57.104L126.99 57.904ZM136.454 28.168L136.53 29.1652L136.542 29.1641L136.454 28.168ZM140.654 29.176L140.113 30.0172L141.531 30.9288L141.651 29.2472L140.654 29.176ZM141.102 16.576L140.295 15.9846L140.107 16.2408L140.102 16.5585L141.102 16.576ZM145.078 14.952V13.952H145.032L144.987 13.9561L145.078 14.952ZM146.03 15.4H147.03V15.301L147.01 15.2039L146.03 15.4ZM144.798 59.304L143.798 59.2846L143.798 59.2943V59.304H144.798ZM144.35 59.808V58.808H144.197L144.051 58.8535L144.35 59.808ZM139.87 59.808L138.883 59.9724L138.929 60.2472L139.11 60.4588L139.87 59.808ZM139.534 54.768L140.329 55.374L140.508 55.1391L140.531 54.8447L139.534 54.768ZM140.038 33.88H141.038V33.5727L140.865 33.3185L140.038 33.88ZM139.111 57.2778C138.614 57.5096 138.056 57.8454 137.066 58.1626C136.096 58.4734 134.729 58.752 132.814 58.752V60.752C134.931 60.752 136.504 60.4426 137.676 60.0674C138.827 59.6986 139.613 59.2504 139.957 59.0902L139.111 57.2778ZM132.814 58.752C131.19 58.752 129.008 58.1802 127.594 57.1073L126.385 58.7007C128.219 60.0918 130.853 60.752 132.814 60.752V58.752ZM127.59 57.104C124.821 55.0275 123.622 50.881 123.622 47.32H121.622C121.622 51.151 122.886 56.0765 126.39 58.704L127.59 57.104ZM123.622 47.32C123.622 42.8886 124.315 38.5173 126.264 35.1827C128.176 31.9121 131.339 29.5604 136.53 29.1651L136.378 27.1709C130.537 27.6156 126.783 30.3319 124.537 34.1733C122.329 37.9507 121.622 42.7354 121.622 47.32H123.622ZM136.542 29.1641C138.166 29.0208 139.46 29.5971 140.113 30.0172L141.195 28.3348C140.28 27.7469 138.549 26.9792 136.366 27.1719L136.542 29.1641ZM141.651 29.2472C141.821 26.8692 141.989 22.9849 142.102 16.5935L140.102 16.5585C139.99 22.9351 139.822 26.7788 139.656 29.1048L141.651 29.2472ZM141.908 17.1674C141.95 17.1106 142.071 16.9928 142.323 16.8415C142.564 16.6977 142.868 16.5559 143.211 16.427C143.904 16.1664 144.655 15.9945 145.168 15.9479L144.987 13.9561C144.268 14.0215 143.34 14.2416 142.507 14.555C142.086 14.7131 141.666 14.9038 141.296 15.1257C140.938 15.3402 140.562 15.6214 140.295 15.9846L141.908 17.1674ZM145.078 15.952C145.113 15.952 145.144 15.9506 145.163 15.9497C145.183 15.9488 145.205 15.9475 145.219 15.9467C145.252 15.9448 145.277 15.9435 145.301 15.9431C145.354 15.942 145.374 15.9456 145.372 15.9453C145.371 15.945 145.3 15.9312 145.215 15.8599C145.17 15.8228 145.13 15.7763 145.099 15.7231C145.069 15.6706 145.055 15.6249 145.049 15.5961L147.01 15.2039C146.94 14.852 146.764 14.549 146.5 14.3276C146.252 14.1198 145.981 14.029 145.777 13.9867C145.443 13.9176 144.97 13.952 145.078 13.952V15.952ZM145.03 15.4V20.216H147.03V15.4H145.03ZM145.03 20.216C145.03 23.6785 144.808 27.1184 144.584 30.6027C144.36 34.0768 144.134 37.5946 144.134 41.16H146.134C146.134 37.6694 146.355 34.2152 146.58 30.7313C146.803 27.2576 147.03 23.7535 147.03 20.216H145.03ZM144.134 41.16C144.134 46.9718 143.91 53.4942 143.798 59.2846L145.798 59.3234C145.909 53.5778 146.134 46.9962 146.134 41.16H144.134ZM143.798 59.304C143.798 59.1929 143.82 59.1115 143.832 59.0726C143.845 59.0298 143.859 59.0019 143.866 58.9896C143.873 58.9761 143.878 58.9689 143.879 58.9671C143.88 58.9649 143.881 58.9642 143.881 58.9641C143.881 58.964 143.883 58.9616 143.888 58.9569C143.893 58.9527 143.905 58.9418 143.926 58.9276C143.945 58.9143 143.985 58.8891 144.045 58.8651C144.102 58.8421 144.208 58.808 144.35 58.808V60.808C144.692 60.808 144.945 60.6537 145.055 60.5782C145.192 60.4847 145.305 60.3746 145.392 60.2739C145.481 60.1719 145.567 60.0509 145.637 59.9176C145.694 59.8085 145.798 59.5849 145.798 59.304H143.798ZM144.051 58.8535C143.286 59.0929 142.331 59.2 141.326 59.2V61.2C142.448 61.2 143.622 61.0831 144.648 60.7625L144.051 58.8535ZM141.326 59.2C141.089 59.2 140.899 59.1974 140.737 59.1675C140.568 59.1364 140.581 59.1011 140.629 59.1572L139.11 60.4588C139.495 60.9069 140.012 61.0676 140.375 61.1345C140.745 61.2026 141.115 61.2 141.326 61.2V59.2ZM140.856 59.6436C140.822 59.4362 140.725 59.0334 140.655 58.7306C140.617 58.5637 140.583 58.4113 140.559 58.2901C140.527 58.1305 140.534 58.123 140.534 58.184H138.534C138.534 58.357 138.575 58.5665 138.598 58.6799C138.628 58.8317 138.667 59.0083 138.706 59.1774C138.791 59.5466 138.862 59.8438 138.883 59.9724L140.856 59.6436ZM126.27 46.032C126.27 51.5388 127.572 54.6867 129.462 56.4275C131.35 58.1667 133.603 58.288 134.942 58.288V56.288C133.705 56.288 132.121 56.1573 130.817 54.9565C129.515 53.7573 128.27 51.2772 128.27 46.032H126.27ZM134.942 58.288C135.974 58.288 137.077 57.86 137.988 57.3359C138.91 56.8057 139.78 56.0947 140.329 55.374L138.738 54.162C138.391 54.6173 137.749 55.1663 136.991 55.6021C136.223 56.044 135.477 56.288 134.942 56.288V58.288ZM140.531 54.8447C140.87 50.4377 141.038 45.8712 141.038 33.88H139.038C139.038 45.8568 138.87 50.3623 138.537 54.6913L140.531 54.8447ZM140.865 33.3185C139.801 31.7502 138.417 29.968 135.838 29.968V31.968C137.291 31.968 138.146 32.8738 139.21 34.4415L140.865 33.3185ZM135.838 29.968C132.885 29.968 130.473 32.0343 128.854 34.9243C127.222 37.8386 126.27 41.7801 126.27 46.032H128.27C128.27 42.0519 129.166 38.4614 130.599 35.9017C132.047 33.3177 133.918 31.968 135.838 31.968V29.968ZM157.296 39.928L156.66 39.1561L156.29 39.4605L156.296 39.9394L157.296 39.928ZM161.104 38.024L161.353 38.9925L161.381 38.9853L161.409 38.9764L161.104 38.024ZM162.448 39.536H161.448V39.5612L161.449 39.5863L162.448 39.536ZM161.216 59.584L161.306 60.5799L161.315 60.579L161.216 59.584ZM158.248 59.36L157.439 59.9482L157.68 60.2791L158.083 60.3464L158.248 59.36ZM157.464 54.656H158.464L158.464 54.6446L157.464 54.656ZM156.512 30.352L155.515 30.4302L155.516 30.4463L155.518 30.4624L156.512 30.352ZM162.112 25.424L162.048 26.422L162.057 26.4226L162.066 26.423L162.112 25.424ZM159.088 33.824L159.06 32.8244L159.059 32.8244L159.088 33.824ZM157.932 40.6999C158.794 39.9894 159.562 39.4531 161.353 38.9925L160.855 37.0555C158.726 37.6029 157.701 38.2986 156.66 39.1561L157.932 40.6999ZM161.409 38.9764C161.605 38.9137 161.587 38.9718 161.479 38.921C161.373 38.8714 161.357 38.7999 161.378 38.8508C161.402 38.9072 161.426 39.0097 161.438 39.1563C161.45 39.2985 161.448 39.4181 161.448 39.536H163.448C163.448 39.4042 163.478 38.688 163.223 38.0792C163.084 37.7451 162.819 37.3411 162.33 37.1112C161.839 36.8802 161.303 36.9103 160.799 37.0716L161.409 38.9764ZM161.449 39.5863C161.84 47.3456 161.84 50.4623 161.84 57.848H163.84C163.84 50.4497 163.84 47.2944 163.447 39.4857L161.449 39.5863ZM161.84 57.848C161.84 58.0893 161.796 58.2242 161.763 58.2938C161.731 58.3598 161.693 58.4004 161.649 58.433C161.535 58.5159 161.351 58.5655 161.116 58.589L161.315 60.579C161.64 60.5465 162.269 60.4561 162.827 60.049C163.449 59.5952 163.84 58.859 163.84 57.848H161.84ZM161.125 58.5881C160.042 58.6866 159.775 58.6007 158.412 58.3736L158.083 60.3464C159.409 60.5673 159.926 60.7054 161.306 60.5799L161.125 58.5881ZM159.057 58.7718C159.072 58.7932 159.003 58.6738 158.906 58.288C158.823 57.9535 158.744 57.5303 158.677 57.0725C158.542 56.1504 158.464 55.1798 158.464 54.656H156.464C156.464 55.3082 156.554 56.3816 156.698 57.3635C156.771 57.8577 156.861 58.3515 156.966 58.773C157.059 59.1432 157.2 59.6188 157.439 59.9482L159.057 58.7718ZM158.464 54.6446L158.296 39.9166L156.296 39.9394L156.464 54.6674L158.464 54.6446ZM157.509 30.2738C157.43 29.2645 157.947 28.2835 158.873 27.5291C159.803 26.7702 161.017 26.3561 162.048 26.422L162.176 24.426C160.575 24.3239 158.876 24.9458 157.609 25.9789C156.336 27.0165 155.37 28.5835 155.515 30.4302L157.509 30.2738ZM162.066 26.423C162.141 26.4263 162.143 26.441 162.146 26.4441C162.173 26.4703 162.244 26.5622 162.315 26.8015C162.464 27.3015 162.512 28.0732 162.512 29.12H164.512C164.512 28.0948 164.475 27.0465 164.232 26.2305C164.107 25.8118 163.906 25.3717 163.554 25.0234C163.179 24.652 162.699 24.4496 162.157 24.425L162.066 26.423ZM162.512 29.12C162.512 30.1987 162.402 31.0711 161.984 31.6883C161.62 32.2262 160.872 32.7741 159.06 32.8244L159.116 34.8236C161.336 34.7619 162.8 34.0498 163.64 32.8097C164.426 31.6489 164.512 30.2253 164.512 29.12H162.512ZM159.059 32.8244C158.623 32.8369 158.292 32.6055 157.996 32.0298C157.693 31.4406 157.557 30.7 157.506 30.2416L155.518 30.4624C155.579 31.012 155.75 32.0354 156.217 32.9442C156.692 33.8665 157.592 34.8671 159.116 34.8236L159.059 32.8244ZM196.589 35.56L196.634 36.559L197.221 36.5327L197.484 36.0072L196.589 35.56ZM183.877 36.064L183.865 35.0641L182.846 35.0768L182.878 36.0952L183.877 36.064ZM185.389 58.744L186.08 59.4674L186.435 59.1285L186.384 58.6404L185.389 58.744ZM180.685 59.584L180.725 58.5848L180.705 58.584H180.685V59.584ZM180.293 59.08H181.293V59.0307L181.289 58.9817L180.293 59.08ZM178.725 36.064L179.725 36.0292L179.692 35.0898L178.752 35.0644L178.725 36.064ZM172.733 35.784L172.794 34.7858L172.789 34.7855L172.733 35.784ZM171.221 34.44L172.087 34.941L172.117 34.8891L172.141 34.8339L171.221 34.44ZM173.237 32.536L173.337 31.541L173.023 31.5095L172.747 31.6644L173.237 32.536ZM178.669 32.816V33.816H179.706L179.669 32.7803L178.669 32.816ZM178.725 20.216L178.156 19.3938L177.741 19.6813L177.726 20.1862L178.725 20.216ZM181.973 18.592V17.592H181.761L181.567 17.6782L181.973 18.592ZM183.709 19.936H184.709V19.8221L184.684 19.7111L183.709 19.936ZM183.821 32.872L182.822 32.8976L182.847 33.8847L183.834 33.8719L183.821 32.872ZM196.645 32.48V31.48H196.618L196.591 31.4815L196.645 32.48ZM197.149 32.816L198.148 32.8747L198.149 32.8454V32.816H197.149ZM196.545 34.561C192.769 34.7301 188.323 35.0083 183.865 35.0641L183.89 37.0639C188.391 37.0077 192.906 36.7259 196.634 36.559L196.545 34.561ZM182.878 36.0952C183.103 43.2839 183.552 50.7563 184.395 58.8476L186.384 58.6404C185.547 50.6037 185.1 43.1801 184.877 36.0328L182.878 36.0952ZM184.699 58.0206C184.322 58.3806 183.764 58.5677 183.018 58.6294C182.252 58.6927 181.503 58.6159 180.725 58.5848L180.645 60.5832C181.268 60.6081 182.254 60.6993 183.183 60.6226C184.13 60.5443 185.225 60.2834 186.08 59.4674L184.699 58.0206ZM180.685 58.584C180.829 58.584 180.964 58.6307 181.071 58.7036C181.167 58.7698 181.219 58.8421 181.242 58.8805C181.266 58.9199 181.276 58.9504 181.281 58.9691C181.285 58.9853 181.293 59.0209 181.293 59.08H179.293C179.293 59.3359 179.366 59.6413 179.527 59.9095C179.699 60.196 180.074 60.584 180.685 60.584V58.584ZM181.289 58.9817C180.395 49.9317 179.948 42.4489 179.725 36.0292L177.726 36.0988C177.951 42.5591 178.4 50.0843 179.298 59.1783L181.289 58.9817ZM178.752 35.0644C176.697 35.0088 174.638 34.8976 172.794 34.7858L172.673 36.7822C174.525 36.8944 176.61 37.0072 178.698 37.0636L178.752 35.0644ZM172.789 34.7855C172.559 34.7728 172.349 34.7516 172.174 34.7179C171.987 34.6821 171.901 34.6435 171.88 34.6309C171.874 34.627 171.999 34.7051 172.037 34.8958C172.069 35.0571 171.996 35.0984 172.087 34.941L170.356 33.939C170.139 34.3136 169.975 34.7819 170.075 35.2862C170.181 35.8199 170.534 36.157 170.857 36.3491C171.165 36.5325 171.509 36.6269 171.797 36.6821C172.096 36.7394 172.404 36.7672 172.678 36.7825L172.789 34.7855ZM172.141 34.8339C172.127 34.866 172.147 34.8161 172.26 34.6753C172.359 34.5531 172.494 34.4034 172.657 34.2438C172.989 33.9182 173.381 33.6028 173.728 33.4076L172.747 31.6644C172.198 31.9732 171.666 32.4138 171.256 32.8162C171.048 33.0206 170.858 33.2279 170.703 33.4207C170.562 33.5949 170.4 33.818 170.302 34.0461L172.141 34.8339ZM173.138 33.531C174.846 33.7018 176.727 33.816 178.669 33.816V31.816C176.804 31.816 174.989 31.7062 173.337 31.541L173.138 33.531ZM179.669 32.7803C179.502 28.112 179.613 23.9967 179.725 20.2458L177.726 20.1862C177.614 23.9393 177.501 28.112 177.67 32.8517L179.669 32.7803ZM179.295 21.0382C179.925 20.6015 181.327 19.9737 182.38 19.5058L181.567 17.6782C180.604 18.1063 178.981 18.8225 178.156 19.3938L179.295 21.0382ZM181.973 19.592H182.421V17.592H181.973V19.592ZM182.421 19.592C182.431 19.592 182.433 19.5931 182.438 19.5952C182.445 19.5988 182.47 19.613 182.506 19.654C182.585 19.7432 182.678 19.9138 182.735 20.1609L184.684 19.7111C184.485 18.8482 183.822 17.592 182.421 17.592V19.592ZM182.709 19.936C182.709 24.2461 182.709 28.5148 182.822 32.8976L184.821 32.8464C184.709 28.4932 184.709 24.2499 184.709 19.936H182.709ZM183.834 33.8719C188.154 33.8158 192.537 33.7036 196.699 33.4785L196.591 31.4815C192.466 31.7044 188.113 31.8162 183.808 31.8721L183.834 33.8719ZM196.645 33.48C196.592 33.48 196.518 33.4657 196.433 33.4072C196.375 33.3669 196.149 33.1836 196.149 32.816H198.149C198.149 32.2804 197.812 31.9291 197.572 31.7628C197.305 31.5783 196.978 31.48 196.645 31.48V33.48ZM196.151 32.7573C196.127 33.1737 196.051 33.6987 195.953 34.1757C195.848 34.6855 195.743 35.0177 195.695 35.1128L197.484 36.0072C197.66 35.6543 197.807 35.0905 197.912 34.5783C198.024 34.0333 198.116 33.4103 198.148 32.8747L196.151 32.7573Z" fill="black" mask="url(#path-3-outside-1_92_1209)"/>
</svg>
