<svg width="36" height="36" viewBox="0 0 36 36" fill="none" xmlns="http://www.w3.org/2000/svg">
<mask id="path-1-inside-1_52_1267" fill="white">
<path fill-rule="evenodd" clip-rule="evenodd" d="M29.9995 15C29.9995 8.37258 24.627 3 17.9995 3C11.3721 3 5.99955 8.37258 5.99955 15V20.802C5.99955 20.9337 5.98654 21.065 5.96071 21.1942L4.97799 26.1078C4.73048 27.3454 5.67706 28.5 6.93916 28.5H13.4995C13.4995 30.9853 15.5142 33 17.9995 33C20.4848 33 22.4995 30.9853 22.4995 28.5H29.0599C30.322 28.5 31.2686 27.3454 31.0211 26.1078L30.0384 21.1942C30.0126 21.065 29.9995 20.9337 29.9995 20.802V15Z"/>
</mask>
<path d="M5.96071 21.1942L7.92187 21.5864L5.96071 21.1942ZM4.97799 26.1078L3.01683 25.7155L3.01683 25.7155L4.97799 26.1078ZM13.4995 28.5H15.4995V26.5H13.4995V28.5ZM22.4995 28.5V26.5H20.4995V28.5H22.4995ZM31.0211 26.1078L32.9823 25.7155L31.0211 26.1078ZM30.0384 21.1942L31.9995 20.802V20.802L30.0384 21.1942ZM17.9995 5C23.5224 5 27.9995 9.47715 27.9995 15H31.9995C31.9995 7.26801 25.7315 1 17.9995 1V5ZM7.99955 15C7.99955 9.47715 12.4767 5 17.9995 5V1C10.2676 1 3.99955 7.26801 3.99955 15H7.99955ZM7.99955 20.802V15H3.99955V20.802H7.99955ZM7.92187 21.5864C7.97353 21.3281 7.99955 21.0654 7.99955 20.802H3.99955V20.802L7.92187 21.5864ZM6.93916 26.5L7.92187 21.5864L3.99955 20.802L3.01683 25.7155L6.93916 26.5ZM6.93916 26.5L6.93916 26.5L3.01683 25.7155C2.5218 28.1907 4.41497 30.5 6.93916 30.5V26.5ZM13.4995 26.5H6.93916V30.5H13.4995V26.5ZM17.9995 31C16.6188 31 15.4995 29.8807 15.4995 28.5H11.4995C11.4995 32.0898 14.4096 35 17.9995 35V31ZM20.4995 28.5C20.4995 29.8807 19.3802 31 17.9995 31V35C21.5893 35 24.4995 32.0899 24.4995 28.5H20.4995ZM29.0599 26.5H22.4995V30.5H29.0599V26.5ZM29.0599 26.5V26.5V30.5C31.5841 30.5 33.4773 28.1907 32.9823 25.7155L29.0599 26.5ZM28.0772 21.5864L29.0599 26.5L32.9823 25.7155L31.9995 20.802L28.0772 21.5864ZM27.9995 20.802C27.9995 21.0654 28.0256 21.3281 28.0772 21.5864L31.9995 20.802V20.802H27.9995ZM27.9995 15V20.802H31.9995V15H27.9995Z" fill="white" mask="url(#path-1-inside-1_52_1267)"/>
<line x1="12" y1="27.2" x2="25" y2="27.2" stroke="white" stroke-width="1.6"/>
</svg>
