<svg width="49" height="48" viewBox="0 0 49 48" fill="none" xmlns="http://www.w3.org/2000/svg">
<path fill-rule="evenodd" clip-rule="evenodd" d="M18.7822 26C19.8431 26 20.8605 26.4214 21.6107 27.1716C22.3608 27.9217 22.7822 28.9391 22.7822 30V38C22.7822 39.0609 22.3608 40.0783 21.6107 40.8284C20.8605 41.5786 19.8431 42 18.7822 42H10.7822C9.72136 42 8.70394 41.5786 7.9538 40.8284C7.20365 40.0783 6.78223 39.0609 6.78223 38V30C6.78223 28.9391 7.20365 27.9217 7.9538 27.1716C8.70394 26.4214 9.72136 26 10.7822 26H18.7822ZM38.7822 26C39.8431 26 40.8605 26.4214 41.6107 27.1716C42.3608 27.9217 42.7822 28.9391 42.7822 30V38C42.7822 39.0609 42.3608 40.0783 41.6107 40.8284C40.8605 41.5786 39.8431 42 38.7822 42H30.7822C29.7214 42 28.7039 41.5786 27.9538 40.8284C27.2037 40.0783 26.7822 39.0609 26.7822 38V30C26.7822 28.9391 27.2037 27.9217 27.9538 27.1716C28.7039 26.4214 29.7214 26 30.7822 26H38.7822ZM18.7822 6C19.8431 6 20.8605 6.42143 21.6107 7.17157C22.3608 7.92172 22.7822 8.93913 22.7822 10V18C22.7822 19.0609 22.3608 20.0783 21.6107 20.8284C20.8605 21.5786 19.8431 22 18.7822 22H10.7822C9.72136 22 8.70394 21.5786 7.9538 20.8284C7.20365 20.0783 6.78223 19.0609 6.78223 18V10C6.78223 8.93913 7.20365 7.92172 7.9538 7.17157C8.70394 6.42143 9.72136 6 10.7822 6H18.7822ZM38.7822 6C39.8431 6 40.8605 6.42143 41.6107 7.17157C42.3608 7.92172 42.7822 8.93913 42.7822 10V18C42.7822 19.0609 42.3608 20.0783 41.6107 20.8284C40.8605 21.5786 39.8431 22 38.7822 22H30.7822C29.7214 22 28.7039 21.5786 27.9538 20.8284C27.2037 20.0783 26.7822 19.0609 26.7822 18V10C26.7822 8.93913 27.2037 7.92172 27.9538 7.17157C28.7039 6.42143 29.7214 6 30.7822 6H38.7822Z" fill="#737373"/>
</svg>
